<?xml version="1.0" encoding="utf-8" standalone="no"?>
<!DOCTYPE svg PUBLIC "-//W3C//DTD SVG 1.1//EN"
  "http://www.w3.org/Graphics/SVG/1.1/DTD/svg11.dtd">
<svg xmlns:xlink="http://www.w3.org/1999/xlink" width="460.8pt" height="345.6pt" viewBox="0 0 460.8 345.6" xmlns="http://www.w3.org/2000/svg" version="1.1">
 <metadata>
  <rdf:RDF xmlns:dc="http://purl.org/dc/elements/1.1/" xmlns:cc="http://creativecommons.org/ns#" xmlns:rdf="http://www.w3.org/1999/02/22-rdf-syntax-ns#">
   <cc:Work>
    <dc:type rdf:resource="http://purl.org/dc/dcmitype/StillImage"/>
    <dc:date>2022-12-09T17:30:12.111009</dc:date>
    <dc:format>image/svg+xml</dc:format>
    <dc:creator>
     <cc:Agent>
      <dc:title>Matplotlib v3.6.2, https://matplotlib.org/</dc:title>
     </cc:Agent>
    </dc:creator>
   </cc:Work>
  </rdf:RDF>
 </metadata>
 <defs>
  <style type="text/css">*{stroke-linejoin: round; stroke-linecap: butt}</style>
 </defs>
 <g id="figure_1">
  <g id="patch_1">
   <path d="M 0 345.6 
L 460.8 345.6 
L 460.8 0 
L 0 0 
z
" style="fill: #ffffff"/>
  </g>
  <g id="axes_1">
   <g id="patch_2">
    <path d="M 57.6 307.584 
L 414.72 307.584 
L 414.72 41.472 
L 57.6 41.472 
z
" style="fill: #ffffff"/>
   </g>
   <g id="matplotlib.axis_1">
    <g id="xtick_1">
     <g id="line2d_1">
      <defs>
       <path id="m22994094cb" d="M 0 0 
L 0 3.5 
" style="stroke: #000000; stroke-width: 0.8"/>
      </defs>
      <g>
       <use xlink:href="#m22994094cb" x="73.832727" y="307.584" style="stroke: #000000; stroke-width: 0.8"/>
      </g>
     </g>
     <g id="text_1">
      <!-- 0 -->
      <g transform="translate(69.378977 325.221812) scale(0.14 -0.14)">
       <defs>
        <path id="DejaVuSans-30" d="M 2034 4250 
Q 1547 4250 1301 3770 
Q 1056 3291 1056 2328 
Q 1056 1369 1301 889 
Q 1547 409 2034 409 
Q 2525 409 2770 889 
Q 3016 1369 3016 2328 
Q 3016 3291 2770 3770 
Q 2525 4250 2034 4250 
z
M 2034 4750 
Q 2819 4750 3233 4129 
Q 3647 3509 3647 2328 
Q 3647 1150 3233 529 
Q 2819 -91 2034 -91 
Q 1250 -91 836 529 
Q 422 1150 422 2328 
Q 422 3509 836 4129 
Q 1250 4750 2034 4750 
z
" transform="scale(0.015625)"/>
       </defs>
       <use xlink:href="#DejaVuSans-30"/>
      </g>
     </g>
    </g>
    <g id="xtick_2">
     <g id="line2d_2">
      <g>
       <use xlink:href="#m22994094cb" x="142.908162" y="307.584" style="stroke: #000000; stroke-width: 0.8"/>
      </g>
     </g>
     <g id="text_2">
      <!-- 10 -->
      <g transform="translate(134.000662 325.221812) scale(0.14 -0.14)">
       <defs>
        <path id="DejaVuSans-31" d="M 794 531 
L 1825 531 
L 1825 4091 
L 703 3866 
L 703 4441 
L 1819 4666 
L 2450 4666 
L 2450 531 
L 3481 531 
L 3481 0 
L 794 0 
L 794 531 
z
" transform="scale(0.015625)"/>
       </defs>
       <use xlink:href="#DejaVuSans-31"/>
       <use xlink:href="#DejaVuSans-30" x="63.623047"/>
      </g>
     </g>
    </g>
    <g id="xtick_3">
     <g id="line2d_3">
      <g>
       <use xlink:href="#m22994094cb" x="211.983598" y="307.584" style="stroke: #000000; stroke-width: 0.8"/>
      </g>
     </g>
     <g id="text_3">
      <!-- 20 -->
      <g transform="translate(203.076098 325.221812) scale(0.14 -0.14)">
       <defs>
        <path id="DejaVuSans-32" d="M 1228 531 
L 3431 531 
L 3431 0 
L 469 0 
L 469 531 
Q 828 903 1448 1529 
Q 2069 2156 2228 2338 
Q 2531 2678 2651 2914 
Q 2772 3150 2772 3378 
Q 2772 3750 2511 3984 
Q 2250 4219 1831 4219 
Q 1534 4219 1204 4116 
Q 875 4013 500 3803 
L 500 4441 
Q 881 4594 1212 4672 
Q 1544 4750 1819 4750 
Q 2544 4750 2975 4387 
Q 3406 4025 3406 3419 
Q 3406 3131 3298 2873 
Q 3191 2616 2906 2266 
Q 2828 2175 2409 1742 
Q 1991 1309 1228 531 
z
" transform="scale(0.015625)"/>
       </defs>
       <use xlink:href="#DejaVuSans-32"/>
       <use xlink:href="#DejaVuSans-30" x="63.623047"/>
      </g>
     </g>
    </g>
    <g id="xtick_4">
     <g id="line2d_4">
      <g>
       <use xlink:href="#m22994094cb" x="281.059033" y="307.584" style="stroke: #000000; stroke-width: 0.8"/>
      </g>
     </g>
     <g id="text_4">
      <!-- 30 -->
      <g transform="translate(272.151533 325.221812) scale(0.14 -0.14)">
       <defs>
        <path id="DejaVuSans-33" d="M 2597 2516 
Q 3050 2419 3304 2112 
Q 3559 1806 3559 1356 
Q 3559 666 3084 287 
Q 2609 -91 1734 -91 
Q 1441 -91 1130 -33 
Q 819 25 488 141 
L 488 750 
Q 750 597 1062 519 
Q 1375 441 1716 441 
Q 2309 441 2620 675 
Q 2931 909 2931 1356 
Q 2931 1769 2642 2001 
Q 2353 2234 1838 2234 
L 1294 2234 
L 1294 2753 
L 1863 2753 
Q 2328 2753 2575 2939 
Q 2822 3125 2822 3475 
Q 2822 3834 2567 4026 
Q 2313 4219 1838 4219 
Q 1578 4219 1281 4162 
Q 984 4106 628 3988 
L 628 4550 
Q 988 4650 1302 4700 
Q 1616 4750 1894 4750 
Q 2613 4750 3031 4423 
Q 3450 4097 3450 3541 
Q 3450 3153 3228 2886 
Q 3006 2619 2597 2516 
z
" transform="scale(0.015625)"/>
       </defs>
       <use xlink:href="#DejaVuSans-33"/>
       <use xlink:href="#DejaVuSans-30" x="63.623047"/>
      </g>
     </g>
    </g>
    <g id="xtick_5">
     <g id="line2d_5">
      <g>
       <use xlink:href="#m22994094cb" x="350.134468" y="307.584" style="stroke: #000000; stroke-width: 0.8"/>
      </g>
     </g>
     <g id="text_5">
      <!-- 40 -->
      <g transform="translate(341.226968 325.221812) scale(0.14 -0.14)">
       <defs>
        <path id="DejaVuSans-34" d="M 2419 4116 
L 825 1625 
L 2419 1625 
L 2419 4116 
z
M 2253 4666 
L 3047 4666 
L 3047 1625 
L 3713 1625 
L 3713 1100 
L 3047 1100 
L 3047 0 
L 2419 0 
L 2419 1100 
L 313 1100 
L 313 1709 
L 2253 4666 
z
" transform="scale(0.015625)"/>
       </defs>
       <use xlink:href="#DejaVuSans-34"/>
       <use xlink:href="#DejaVuSans-30" x="63.623047"/>
      </g>
     </g>
    </g>
    <g id="text_6">
     <!-- Experiment number -->
     <g transform="translate(166.169844 342.771187) scale(0.14 -0.14)">
      <defs>
       <path id="DejaVuSans-45" d="M 628 4666 
L 3578 4666 
L 3578 4134 
L 1259 4134 
L 1259 2753 
L 3481 2753 
L 3481 2222 
L 1259 2222 
L 1259 531 
L 3634 531 
L 3634 0 
L 628 0 
L 628 4666 
z
" transform="scale(0.015625)"/>
       <path id="DejaVuSans-78" d="M 3513 3500 
L 2247 1797 
L 3578 0 
L 2900 0 
L 1881 1375 
L 863 0 
L 184 0 
L 1544 1831 
L 300 3500 
L 978 3500 
L 1906 2253 
L 2834 3500 
L 3513 3500 
z
" transform="scale(0.015625)"/>
       <path id="DejaVuSans-70" d="M 1159 525 
L 1159 -1331 
L 581 -1331 
L 581 3500 
L 1159 3500 
L 1159 2969 
Q 1341 3281 1617 3432 
Q 1894 3584 2278 3584 
Q 2916 3584 3314 3078 
Q 3713 2572 3713 1747 
Q 3713 922 3314 415 
Q 2916 -91 2278 -91 
Q 1894 -91 1617 61 
Q 1341 213 1159 525 
z
M 3116 1747 
Q 3116 2381 2855 2742 
Q 2594 3103 2138 3103 
Q 1681 3103 1420 2742 
Q 1159 2381 1159 1747 
Q 1159 1113 1420 752 
Q 1681 391 2138 391 
Q 2594 391 2855 752 
Q 3116 1113 3116 1747 
z
" transform="scale(0.015625)"/>
       <path id="DejaVuSans-65" d="M 3597 1894 
L 3597 1613 
L 953 1613 
Q 991 1019 1311 708 
Q 1631 397 2203 397 
Q 2534 397 2845 478 
Q 3156 559 3463 722 
L 3463 178 
Q 3153 47 2828 -22 
Q 2503 -91 2169 -91 
Q 1331 -91 842 396 
Q 353 884 353 1716 
Q 353 2575 817 3079 
Q 1281 3584 2069 3584 
Q 2775 3584 3186 3129 
Q 3597 2675 3597 1894 
z
M 3022 2063 
Q 3016 2534 2758 2815 
Q 2500 3097 2075 3097 
Q 1594 3097 1305 2825 
Q 1016 2553 972 2059 
L 3022 2063 
z
" transform="scale(0.015625)"/>
       <path id="DejaVuSans-72" d="M 2631 2963 
Q 2534 3019 2420 3045 
Q 2306 3072 2169 3072 
Q 1681 3072 1420 2755 
Q 1159 2438 1159 1844 
L 1159 0 
L 581 0 
L 581 3500 
L 1159 3500 
L 1159 2956 
Q 1341 3275 1631 3429 
Q 1922 3584 2338 3584 
Q 2397 3584 2469 3576 
Q 2541 3569 2628 3553 
L 2631 2963 
z
" transform="scale(0.015625)"/>
       <path id="DejaVuSans-69" d="M 603 3500 
L 1178 3500 
L 1178 0 
L 603 0 
L 603 3500 
z
M 603 4863 
L 1178 4863 
L 1178 4134 
L 603 4134 
L 603 4863 
z
" transform="scale(0.015625)"/>
       <path id="DejaVuSans-6d" d="M 3328 2828 
Q 3544 3216 3844 3400 
Q 4144 3584 4550 3584 
Q 5097 3584 5394 3201 
Q 5691 2819 5691 2113 
L 5691 0 
L 5113 0 
L 5113 2094 
Q 5113 2597 4934 2840 
Q 4756 3084 4391 3084 
Q 3944 3084 3684 2787 
Q 3425 2491 3425 1978 
L 3425 0 
L 2847 0 
L 2847 2094 
Q 2847 2600 2669 2842 
Q 2491 3084 2119 3084 
Q 1678 3084 1418 2786 
Q 1159 2488 1159 1978 
L 1159 0 
L 581 0 
L 581 3500 
L 1159 3500 
L 1159 2956 
Q 1356 3278 1631 3431 
Q 1906 3584 2284 3584 
Q 2666 3584 2933 3390 
Q 3200 3197 3328 2828 
z
" transform="scale(0.015625)"/>
       <path id="DejaVuSans-6e" d="M 3513 2113 
L 3513 0 
L 2938 0 
L 2938 2094 
Q 2938 2591 2744 2837 
Q 2550 3084 2163 3084 
Q 1697 3084 1428 2787 
Q 1159 2491 1159 1978 
L 1159 0 
L 581 0 
L 581 3500 
L 1159 3500 
L 1159 2956 
Q 1366 3272 1645 3428 
Q 1925 3584 2291 3584 
Q 2894 3584 3203 3211 
Q 3513 2838 3513 2113 
z
" transform="scale(0.015625)"/>
       <path id="DejaVuSans-74" d="M 1172 4494 
L 1172 3500 
L 2356 3500 
L 2356 3053 
L 1172 3053 
L 1172 1153 
Q 1172 725 1289 603 
Q 1406 481 1766 481 
L 2356 481 
L 2356 0 
L 1766 0 
Q 1100 0 847 248 
Q 594 497 594 1153 
L 594 3053 
L 172 3053 
L 172 3500 
L 594 3500 
L 594 4494 
L 1172 4494 
z
" transform="scale(0.015625)"/>
       <path id="DejaVuSans-20" transform="scale(0.015625)"/>
       <path id="DejaVuSans-75" d="M 544 1381 
L 544 3500 
L 1119 3500 
L 1119 1403 
Q 1119 906 1312 657 
Q 1506 409 1894 409 
Q 2359 409 2629 706 
Q 2900 1003 2900 1516 
L 2900 3500 
L 3475 3500 
L 3475 0 
L 2900 0 
L 2900 538 
Q 2691 219 2414 64 
Q 2138 -91 1772 -91 
Q 1169 -91 856 284 
Q 544 659 544 1381 
z
M 1991 3584 
L 1991 3584 
z
" transform="scale(0.015625)"/>
       <path id="DejaVuSans-62" d="M 3116 1747 
Q 3116 2381 2855 2742 
Q 2594 3103 2138 3103 
Q 1681 3103 1420 2742 
Q 1159 2381 1159 1747 
Q 1159 1113 1420 752 
Q 1681 391 2138 391 
Q 2594 391 2855 752 
Q 3116 1113 3116 1747 
z
M 1159 2969 
Q 1341 3281 1617 3432 
Q 1894 3584 2278 3584 
Q 2916 3584 3314 3078 
Q 3713 2572 3713 1747 
Q 3713 922 3314 415 
Q 2916 -91 2278 -91 
Q 1894 -91 1617 61 
Q 1341 213 1159 525 
L 1159 0 
L 581 0 
L 581 4863 
L 1159 4863 
L 1159 2969 
z
" transform="scale(0.015625)"/>
      </defs>
      <use xlink:href="#DejaVuSans-45"/>
      <use xlink:href="#DejaVuSans-78" x="63.183594"/>
      <use xlink:href="#DejaVuSans-70" x="122.363281"/>
      <use xlink:href="#DejaVuSans-65" x="185.839844"/>
      <use xlink:href="#DejaVuSans-72" x="247.363281"/>
      <use xlink:href="#DejaVuSans-69" x="288.476562"/>
      <use xlink:href="#DejaVuSans-6d" x="316.259766"/>
      <use xlink:href="#DejaVuSans-65" x="413.671875"/>
      <use xlink:href="#DejaVuSans-6e" x="475.195312"/>
      <use xlink:href="#DejaVuSans-74" x="538.574219"/>
      <use xlink:href="#DejaVuSans-20" x="577.783203"/>
      <use xlink:href="#DejaVuSans-6e" x="609.570312"/>
      <use xlink:href="#DejaVuSans-75" x="672.949219"/>
      <use xlink:href="#DejaVuSans-6d" x="736.328125"/>
      <use xlink:href="#DejaVuSans-62" x="833.740234"/>
      <use xlink:href="#DejaVuSans-65" x="897.216797"/>
      <use xlink:href="#DejaVuSans-72" x="958.740234"/>
     </g>
    </g>
   </g>
   <g id="matplotlib.axis_2">
    <g id="ytick_1">
     <g id="line2d_6">
      <defs>
       <path id="meebccb3192" d="M 0 0 
L -3.5 0 
" style="stroke: #000000; stroke-width: 0.8"/>
      </defs>
      <g>
       <use xlink:href="#meebccb3192" x="57.6" y="295.488" style="stroke: #000000; stroke-width: 0.8"/>
      </g>
     </g>
     <g id="text_7">
      <!-- 0.0 -->
      <g transform="translate(28.335625 300.806906) scale(0.14 -0.14)">
       <defs>
        <path id="DejaVuSans-2e" d="M 684 794 
L 1344 794 
L 1344 0 
L 684 0 
L 684 794 
z
" transform="scale(0.015625)"/>
       </defs>
       <use xlink:href="#DejaVuSans-30"/>
       <use xlink:href="#DejaVuSans-2e" x="63.623047"/>
       <use xlink:href="#DejaVuSans-30" x="95.410156"/>
      </g>
     </g>
    </g>
    <g id="ytick_2">
     <g id="line2d_7">
      <g>
       <use xlink:href="#meebccb3192" x="57.6" y="249.458188" style="stroke: #000000; stroke-width: 0.8"/>
      </g>
     </g>
     <g id="text_8">
      <!-- 0.1 -->
      <g transform="translate(28.335625 254.777095) scale(0.14 -0.14)">
       <use xlink:href="#DejaVuSans-30"/>
       <use xlink:href="#DejaVuSans-2e" x="63.623047"/>
       <use xlink:href="#DejaVuSans-31" x="95.410156"/>
      </g>
     </g>
    </g>
    <g id="ytick_3">
     <g id="line2d_8">
      <g>
       <use xlink:href="#meebccb3192" x="57.6" y="203.428377" style="stroke: #000000; stroke-width: 0.8"/>
      </g>
     </g>
     <g id="text_9">
      <!-- 0.2 -->
      <g transform="translate(28.335625 208.747283) scale(0.14 -0.14)">
       <use xlink:href="#DejaVuSans-30"/>
       <use xlink:href="#DejaVuSans-2e" x="63.623047"/>
       <use xlink:href="#DejaVuSans-32" x="95.410156"/>
      </g>
     </g>
    </g>
    <g id="ytick_4">
     <g id="line2d_9">
      <g>
       <use xlink:href="#meebccb3192" x="57.6" y="157.398565" style="stroke: #000000; stroke-width: 0.8"/>
      </g>
     </g>
     <g id="text_10">
      <!-- 0.3 -->
      <g transform="translate(28.335625 162.717472) scale(0.14 -0.14)">
       <use xlink:href="#DejaVuSans-30"/>
       <use xlink:href="#DejaVuSans-2e" x="63.623047"/>
       <use xlink:href="#DejaVuSans-33" x="95.410156"/>
      </g>
     </g>
    </g>
    <g id="ytick_5">
     <g id="line2d_10">
      <g>
       <use xlink:href="#meebccb3192" x="57.6" y="111.368754" style="stroke: #000000; stroke-width: 0.8"/>
      </g>
     </g>
     <g id="text_11">
      <!-- 0.4 -->
      <g transform="translate(28.335625 116.68766) scale(0.14 -0.14)">
       <use xlink:href="#DejaVuSans-30"/>
       <use xlink:href="#DejaVuSans-2e" x="63.623047"/>
       <use xlink:href="#DejaVuSans-34" x="95.410156"/>
      </g>
     </g>
    </g>
    <g id="ytick_6">
     <g id="line2d_11">
      <g>
       <use xlink:href="#meebccb3192" x="57.6" y="65.338942" style="stroke: #000000; stroke-width: 0.8"/>
      </g>
     </g>
     <g id="text_12">
      <!-- 0.5 -->
      <g transform="translate(28.335625 70.657848) scale(0.14 -0.14)">
       <defs>
        <path id="DejaVuSans-35" d="M 691 4666 
L 3169 4666 
L 3169 4134 
L 1269 4134 
L 1269 2991 
Q 1406 3038 1543 3061 
Q 1681 3084 1819 3084 
Q 2600 3084 3056 2656 
Q 3513 2228 3513 1497 
Q 3513 744 3044 326 
Q 2575 -91 1722 -91 
Q 1428 -91 1123 -41 
Q 819 9 494 109 
L 494 744 
Q 775 591 1075 516 
Q 1375 441 1709 441 
Q 2250 441 2565 725 
Q 2881 1009 2881 1497 
Q 2881 1984 2565 2268 
Q 2250 2553 1709 2553 
Q 1456 2553 1204 2497 
Q 953 2441 691 2322 
L 691 4666 
z
" transform="scale(0.015625)"/>
       </defs>
       <use xlink:href="#DejaVuSans-30"/>
       <use xlink:href="#DejaVuSans-2e" x="63.623047"/>
       <use xlink:href="#DejaVuSans-35" x="95.410156"/>
      </g>
     </g>
    </g>
    <g id="text_13">
     <!-- Metric value -->
     <g transform="translate(21.424062 217.635969) rotate(-90) scale(0.14 -0.14)">
      <defs>
       <path id="DejaVuSans-4d" d="M 628 4666 
L 1569 4666 
L 2759 1491 
L 3956 4666 
L 4897 4666 
L 4897 0 
L 4281 0 
L 4281 4097 
L 3078 897 
L 2444 897 
L 1241 4097 
L 1241 0 
L 628 0 
L 628 4666 
z
" transform="scale(0.015625)"/>
       <path id="DejaVuSans-63" d="M 3122 3366 
L 3122 2828 
Q 2878 2963 2633 3030 
Q 2388 3097 2138 3097 
Q 1578 3097 1268 2742 
Q 959 2388 959 1747 
Q 959 1106 1268 751 
Q 1578 397 2138 397 
Q 2388 397 2633 464 
Q 2878 531 3122 666 
L 3122 134 
Q 2881 22 2623 -34 
Q 2366 -91 2075 -91 
Q 1284 -91 818 406 
Q 353 903 353 1747 
Q 353 2603 823 3093 
Q 1294 3584 2113 3584 
Q 2378 3584 2631 3529 
Q 2884 3475 3122 3366 
z
" transform="scale(0.015625)"/>
       <path id="DejaVuSans-76" d="M 191 3500 
L 800 3500 
L 1894 563 
L 2988 3500 
L 3597 3500 
L 2284 0 
L 1503 0 
L 191 3500 
z
" transform="scale(0.015625)"/>
       <path id="DejaVuSans-61" d="M 2194 1759 
Q 1497 1759 1228 1600 
Q 959 1441 959 1056 
Q 959 750 1161 570 
Q 1363 391 1709 391 
Q 2188 391 2477 730 
Q 2766 1069 2766 1631 
L 2766 1759 
L 2194 1759 
z
M 3341 1997 
L 3341 0 
L 2766 0 
L 2766 531 
Q 2569 213 2275 61 
Q 1981 -91 1556 -91 
Q 1019 -91 701 211 
Q 384 513 384 1019 
Q 384 1609 779 1909 
Q 1175 2209 1959 2209 
L 2766 2209 
L 2766 2266 
Q 2766 2663 2505 2880 
Q 2244 3097 1772 3097 
Q 1472 3097 1187 3025 
Q 903 2953 641 2809 
L 641 3341 
Q 956 3463 1253 3523 
Q 1550 3584 1831 3584 
Q 2591 3584 2966 3190 
Q 3341 2797 3341 1997 
z
" transform="scale(0.015625)"/>
       <path id="DejaVuSans-6c" d="M 603 4863 
L 1178 4863 
L 1178 0 
L 603 0 
L 603 4863 
z
" transform="scale(0.015625)"/>
      </defs>
      <use xlink:href="#DejaVuSans-4d"/>
      <use xlink:href="#DejaVuSans-65" x="86.279297"/>
      <use xlink:href="#DejaVuSans-74" x="147.802734"/>
      <use xlink:href="#DejaVuSans-72" x="187.011719"/>
      <use xlink:href="#DejaVuSans-69" x="228.125"/>
      <use xlink:href="#DejaVuSans-63" x="255.908203"/>
      <use xlink:href="#DejaVuSans-20" x="310.888672"/>
      <use xlink:href="#DejaVuSans-76" x="342.675781"/>
      <use xlink:href="#DejaVuSans-61" x="401.855469"/>
      <use xlink:href="#DejaVuSans-6c" x="463.134766"/>
      <use xlink:href="#DejaVuSans-75" x="490.917969"/>
      <use xlink:href="#DejaVuSans-65" x="554.296875"/>
     </g>
    </g>
   </g>
   <g id="line2d_12">
    <path d="M 73.832727 220.967724 
L 80.740271 220.967724 
L 87.647814 220.967724 
L 94.555358 220.967724 
L 101.462901 220.967724 
L 108.370445 220.967724 
L 115.277988 220.967724 
L 122.185532 220.967724 
L 129.093075 220.967724 
L 136.000619 220.967724 
L 142.908162 220.967724 
L 149.815706 220.967724 
L 156.72325 220.967724 
L 163.630793 220.967724 
L 170.538337 220.967724 
L 177.44588 220.967724 
L 184.353424 220.967724 
L 191.260967 220.967724 
L 198.168511 220.967724 
L 205.076054 220.967724 
L 211.983598 220.967724 
L 218.891141 220.967724 
L 225.798685 220.967724 
L 232.706228 220.967724 
L 239.613772 220.967724 
L 246.521315 220.967724 
L 253.428859 220.967724 
L 260.336402 220.967724 
L 267.243946 220.967724 
L 274.151489 220.967724 
L 281.059033 220.967724 
L 287.966576 220.967724 
L 294.87412 220.967724 
L 301.781663 220.967724 
L 308.689207 220.967724 
L 315.59675 220.967724 
L 322.504294 220.967724 
L 329.411838 220.967724 
L 336.319381 220.967724 
L 343.226925 220.967724 
L 350.134468 220.967724 
L 357.042012 220.967724 
L 363.949555 220.967724 
L 370.857099 220.967724 
L 377.764642 220.967724 
L 384.672186 220.967724 
L 391.579729 220.967724 
L 398.487273 220.967724 
" clip-path="url(#p7a28b31df3)" style="fill: none; stroke: #1f77b4; stroke-width: 1.5; stroke-linecap: square"/>
   </g>
   <g id="line2d_13">
    <path d="M 73.832727 194.295132 
L 80.740271 289.65353 
L 87.647814 263.519863 
L 94.555358 295.488 
L 101.462901 236.996757 
L 108.370445 290.994027 
L 115.277988 285.042735 
L 122.185532 208.204057 
L 129.093075 295.488 
L 136.000619 266.503346 
L 142.908162 262.828349 
L 149.815706 295.488 
L 156.72325 253.604578 
L 163.630793 295.488 
L 170.538337 294.858517 
L 177.44588 254.783096 
L 184.353424 295.488 
L 191.260967 287.384322 
L 198.168511 289.120782 
L 205.076054 242.139983 
L 211.983598 117.492998 
L 218.891141 185.800877 
L 225.798685 295.488 
L 232.706228 155.32562 
L 239.613772 295.488 
L 246.521315 281.356179 
L 253.428859 295.488 
L 260.336402 285.935931 
L 267.243946 275.840555 
L 274.151489 248.810073 
L 281.059033 263.807618 
L 287.966576 275.352193 
L 294.87412 191.78653 
L 301.781663 266.436874 
L 308.689207 215.368074 
L 315.59675 286.200542 
L 322.504294 219.171673 
L 329.411838 295.488 
L 336.319381 295.488 
L 343.226925 295.488 
L 350.134468 240.762385 
L 357.042012 295.488 
L 363.949555 295.482236 
L 370.857099 265.250966 
L 377.764642 287.231264 
L 384.672186 269.957377 
L 391.579729 265.478721 
L 398.487273 291.618776 
" clip-path="url(#p7a28b31df3)" style="fill: none; stroke: #ff7f0e; stroke-width: 1.5; stroke-linecap: square"/>
   </g>
   <g id="line2d_14">
    <path d="M 73.832727 295.488 
L 80.740271 233.410279 
L 87.647814 240.677892 
L 94.555358 284.124978 
L 101.462901 290.031825 
L 108.370445 291.076859 
L 115.277988 163.862838 
L 122.185532 294.125823 
L 129.093075 218.084211 
L 136.000619 226.078836 
L 142.908162 293.593362 
L 149.815706 233.341787 
L 156.72325 234.873168 
L 163.630793 182.051871 
L 170.538337 241.987204 
L 177.44588 295.488 
L 184.353424 284.870716 
L 191.260967 295.488 
L 198.168511 274.182492 
L 205.076054 295.488 
L 211.983598 270.571497 
L 218.891141 295.488 
L 225.798685 261.604812 
L 232.706228 109.761027 
L 239.613772 264.523511 
L 246.521315 53.568 
L 253.428859 270.485379 
L 260.336402 282.690963 
L 267.243946 247.407346 
L 274.151489 288.367824 
L 281.059033 285.013866 
L 287.966576 286.715356 
L 294.87412 291.394783 
L 301.781663 291.31803 
L 308.689207 269.346311 
L 315.59675 272.017814 
L 322.504294 295.488 
L 329.411838 290.625901 
L 336.319381 278.86999 
L 343.226925 272.308514 
L 350.134468 134.901466 
L 357.042012 195.622504 
L 363.949555 295.488 
L 370.857099 295.488 
L 377.764642 295.488 
L 384.672186 139.244916 
L 391.579729 295.037844 
L 398.487273 209.688407 
" clip-path="url(#p7a28b31df3)" style="fill: none; stroke: #2ca02c; stroke-width: 1.5; stroke-linecap: square"/>
   </g>
   <g id="patch_3">
    <path d="M 57.6 307.584 
L 57.6 41.472 
" style="fill: none; stroke: #000000; stroke-width: 0.8; stroke-linejoin: miter; stroke-linecap: square"/>
   </g>
   <g id="patch_4">
    <path d="M 414.72 307.584 
L 414.72 41.472 
" style="fill: none; stroke: #000000; stroke-width: 0.8; stroke-linejoin: miter; stroke-linecap: square"/>
   </g>
   <g id="patch_5">
    <path d="M 57.6 307.584 
L 414.72 307.584 
" style="fill: none; stroke: #000000; stroke-width: 0.8; stroke-linejoin: miter; stroke-linecap: square"/>
   </g>
   <g id="patch_6">
    <path d="M 57.6 41.472 
L 414.72 41.472 
" style="fill: none; stroke: #000000; stroke-width: 0.8; stroke-linejoin: miter; stroke-linecap: square"/>
   </g>
   <g id="text_14">
    <!-- mean_squared_error score, real vs generated. -->
    <g transform="translate(42.425812 16.192425) scale(0.168 -0.168)">
     <defs>
      <path id="DejaVuSans-5f" d="M 3263 -1063 
L 3263 -1509 
L -63 -1509 
L -63 -1063 
L 3263 -1063 
z
" transform="scale(0.015625)"/>
      <path id="DejaVuSans-73" d="M 2834 3397 
L 2834 2853 
Q 2591 2978 2328 3040 
Q 2066 3103 1784 3103 
Q 1356 3103 1142 2972 
Q 928 2841 928 2578 
Q 928 2378 1081 2264 
Q 1234 2150 1697 2047 
L 1894 2003 
Q 2506 1872 2764 1633 
Q 3022 1394 3022 966 
Q 3022 478 2636 193 
Q 2250 -91 1575 -91 
Q 1294 -91 989 -36 
Q 684 19 347 128 
L 347 722 
Q 666 556 975 473 
Q 1284 391 1588 391 
Q 1994 391 2212 530 
Q 2431 669 2431 922 
Q 2431 1156 2273 1281 
Q 2116 1406 1581 1522 
L 1381 1569 
Q 847 1681 609 1914 
Q 372 2147 372 2553 
Q 372 3047 722 3315 
Q 1072 3584 1716 3584 
Q 2034 3584 2315 3537 
Q 2597 3491 2834 3397 
z
" transform="scale(0.015625)"/>
      <path id="DejaVuSans-71" d="M 947 1747 
Q 947 1113 1208 752 
Q 1469 391 1925 391 
Q 2381 391 2643 752 
Q 2906 1113 2906 1747 
Q 2906 2381 2643 2742 
Q 2381 3103 1925 3103 
Q 1469 3103 1208 2742 
Q 947 2381 947 1747 
z
M 2906 525 
Q 2725 213 2448 61 
Q 2172 -91 1784 -91 
Q 1150 -91 751 415 
Q 353 922 353 1747 
Q 353 2572 751 3078 
Q 1150 3584 1784 3584 
Q 2172 3584 2448 3432 
Q 2725 3281 2906 2969 
L 2906 3500 
L 3481 3500 
L 3481 -1331 
L 2906 -1331 
L 2906 525 
z
" transform="scale(0.015625)"/>
      <path id="DejaVuSans-64" d="M 2906 2969 
L 2906 4863 
L 3481 4863 
L 3481 0 
L 2906 0 
L 2906 525 
Q 2725 213 2448 61 
Q 2172 -91 1784 -91 
Q 1150 -91 751 415 
Q 353 922 353 1747 
Q 353 2572 751 3078 
Q 1150 3584 1784 3584 
Q 2172 3584 2448 3432 
Q 2725 3281 2906 2969 
z
M 947 1747 
Q 947 1113 1208 752 
Q 1469 391 1925 391 
Q 2381 391 2643 752 
Q 2906 1113 2906 1747 
Q 2906 2381 2643 2742 
Q 2381 3103 1925 3103 
Q 1469 3103 1208 2742 
Q 947 2381 947 1747 
z
" transform="scale(0.015625)"/>
      <path id="DejaVuSans-6f" d="M 1959 3097 
Q 1497 3097 1228 2736 
Q 959 2375 959 1747 
Q 959 1119 1226 758 
Q 1494 397 1959 397 
Q 2419 397 2687 759 
Q 2956 1122 2956 1747 
Q 2956 2369 2687 2733 
Q 2419 3097 1959 3097 
z
M 1959 3584 
Q 2709 3584 3137 3096 
Q 3566 2609 3566 1747 
Q 3566 888 3137 398 
Q 2709 -91 1959 -91 
Q 1206 -91 779 398 
Q 353 888 353 1747 
Q 353 2609 779 3096 
Q 1206 3584 1959 3584 
z
" transform="scale(0.015625)"/>
      <path id="DejaVuSans-2c" d="M 750 794 
L 1409 794 
L 1409 256 
L 897 -744 
L 494 -744 
L 750 256 
L 750 794 
z
" transform="scale(0.015625)"/>
      <path id="DejaVuSans-67" d="M 2906 1791 
Q 2906 2416 2648 2759 
Q 2391 3103 1925 3103 
Q 1463 3103 1205 2759 
Q 947 2416 947 1791 
Q 947 1169 1205 825 
Q 1463 481 1925 481 
Q 2391 481 2648 825 
Q 2906 1169 2906 1791 
z
M 3481 434 
Q 3481 -459 3084 -895 
Q 2688 -1331 1869 -1331 
Q 1566 -1331 1297 -1286 
Q 1028 -1241 775 -1147 
L 775 -588 
Q 1028 -725 1275 -790 
Q 1522 -856 1778 -856 
Q 2344 -856 2625 -561 
Q 2906 -266 2906 331 
L 2906 616 
Q 2728 306 2450 153 
Q 2172 0 1784 0 
Q 1141 0 747 490 
Q 353 981 353 1791 
Q 353 2603 747 3093 
Q 1141 3584 1784 3584 
Q 2172 3584 2450 3431 
Q 2728 3278 2906 2969 
L 2906 3500 
L 3481 3500 
L 3481 434 
z
" transform="scale(0.015625)"/>
     </defs>
     <use xlink:href="#DejaVuSans-6d"/>
     <use xlink:href="#DejaVuSans-65" x="97.412109"/>
     <use xlink:href="#DejaVuSans-61" x="158.935547"/>
     <use xlink:href="#DejaVuSans-6e" x="220.214844"/>
     <use xlink:href="#DejaVuSans-5f" x="283.59375"/>
     <use xlink:href="#DejaVuSans-73" x="333.59375"/>
     <use xlink:href="#DejaVuSans-71" x="385.693359"/>
     <use xlink:href="#DejaVuSans-75" x="449.169922"/>
     <use xlink:href="#DejaVuSans-61" x="512.548828"/>
     <use xlink:href="#DejaVuSans-72" x="573.828125"/>
     <use xlink:href="#DejaVuSans-65" x="612.691406"/>
     <use xlink:href="#DejaVuSans-64" x="674.214844"/>
     <use xlink:href="#DejaVuSans-5f" x="737.691406"/>
     <use xlink:href="#DejaVuSans-65" x="787.691406"/>
     <use xlink:href="#DejaVuSans-72" x="849.214844"/>
     <use xlink:href="#DejaVuSans-72" x="888.578125"/>
     <use xlink:href="#DejaVuSans-6f" x="927.441406"/>
     <use xlink:href="#DejaVuSans-72" x="988.623047"/>
     <use xlink:href="#DejaVuSans-20" x="1029.736328"/>
     <use xlink:href="#DejaVuSans-73" x="1061.523438"/>
     <use xlink:href="#DejaVuSans-63" x="1113.623047"/>
     <use xlink:href="#DejaVuSans-6f" x="1168.603516"/>
     <use xlink:href="#DejaVuSans-72" x="1229.785156"/>
     <use xlink:href="#DejaVuSans-65" x="1268.648438"/>
     <use xlink:href="#DejaVuSans-2c" x="1330.171875"/>
     <use xlink:href="#DejaVuSans-20" x="1361.958984"/>
     <use xlink:href="#DejaVuSans-72" x="1393.746094"/>
     <use xlink:href="#DejaVuSans-65" x="1432.609375"/>
     <use xlink:href="#DejaVuSans-61" x="1494.132812"/>
     <use xlink:href="#DejaVuSans-6c" x="1555.412109"/>
     <use xlink:href="#DejaVuSans-20" x="1583.195312"/>
     <use xlink:href="#DejaVuSans-76" x="1614.982422"/>
     <use xlink:href="#DejaVuSans-73" x="1674.162109"/>
     <use xlink:href="#DejaVuSans-20" x="1726.261719"/>
     <use xlink:href="#DejaVuSans-67" x="1758.048828"/>
     <use xlink:href="#DejaVuSans-65" x="1821.525391"/>
     <use xlink:href="#DejaVuSans-6e" x="1883.048828"/>
     <use xlink:href="#DejaVuSans-65" x="1946.427734"/>
     <use xlink:href="#DejaVuSans-72" x="2007.951172"/>
     <use xlink:href="#DejaVuSans-61" x="2049.064453"/>
     <use xlink:href="#DejaVuSans-74" x="2110.34375"/>
     <use xlink:href="#DejaVuSans-65" x="2149.552734"/>
     <use xlink:href="#DejaVuSans-64" x="2211.076172"/>
     <use xlink:href="#DejaVuSans-2e" x="2274.552734"/>
    </g>
    <!--  Boosting regressor -->
    <g transform="translate(154.576312 35.472) scale(0.168 -0.168)">
     <defs>
      <path id="DejaVuSans-42" d="M 1259 2228 
L 1259 519 
L 2272 519 
Q 2781 519 3026 730 
Q 3272 941 3272 1375 
Q 3272 1813 3026 2020 
Q 2781 2228 2272 2228 
L 1259 2228 
z
M 1259 4147 
L 1259 2741 
L 2194 2741 
Q 2656 2741 2882 2914 
Q 3109 3088 3109 3444 
Q 3109 3797 2882 3972 
Q 2656 4147 2194 4147 
L 1259 4147 
z
M 628 4666 
L 2241 4666 
Q 2963 4666 3353 4366 
Q 3744 4066 3744 3513 
Q 3744 3084 3544 2831 
Q 3344 2578 2956 2516 
Q 3422 2416 3680 2098 
Q 3938 1781 3938 1306 
Q 3938 681 3513 340 
Q 3088 0 2303 0 
L 628 0 
L 628 4666 
z
" transform="scale(0.015625)"/>
     </defs>
     <use xlink:href="#DejaVuSans-20"/>
     <use xlink:href="#DejaVuSans-42" x="31.787109"/>
     <use xlink:href="#DejaVuSans-6f" x="100.390625"/>
     <use xlink:href="#DejaVuSans-6f" x="161.572266"/>
     <use xlink:href="#DejaVuSans-73" x="222.753906"/>
     <use xlink:href="#DejaVuSans-74" x="274.853516"/>
     <use xlink:href="#DejaVuSans-69" x="314.0625"/>
     <use xlink:href="#DejaVuSans-6e" x="341.845703"/>
     <use xlink:href="#DejaVuSans-67" x="405.224609"/>
     <use xlink:href="#DejaVuSans-20" x="468.701172"/>
     <use xlink:href="#DejaVuSans-72" x="500.488281"/>
     <use xlink:href="#DejaVuSans-65" x="539.351562"/>
     <use xlink:href="#DejaVuSans-67" x="600.875"/>
     <use xlink:href="#DejaVuSans-72" x="664.351562"/>
     <use xlink:href="#DejaVuSans-65" x="703.214844"/>
     <use xlink:href="#DejaVuSans-73" x="764.738281"/>
     <use xlink:href="#DejaVuSans-73" x="816.837891"/>
     <use xlink:href="#DejaVuSans-6f" x="868.9375"/>
     <use xlink:href="#DejaVuSans-72" x="930.119141"/>
    </g>
   </g>
   <g id="legend_1">
    <g id="patch_7">
     <path d="M 181.324688 114.7095 
L 404.92 114.7095 
Q 407.72 114.7095 407.72 111.9095 
L 407.72 51.272 
Q 407.72 48.472 404.92 48.472 
L 181.324688 48.472 
Q 178.524687 48.472 178.524687 51.272 
L 178.524687 111.9095 
Q 178.524687 114.7095 181.324688 114.7095 
z
" style="fill: #ffffff; opacity: 0.8; stroke: #cccccc; stroke-linejoin: miter"/>
    </g>
    <g id="line2d_15">
     <path d="M 184.124687 59.809812 
L 198.124687 59.809812 
L 212.124687 59.809812 
" style="fill: none; stroke: #1f77b4; stroke-width: 1.5; stroke-linecap: square"/>
    </g>
    <g id="text_15">
     <!-- Real mean_squared_error -->
     <g transform="translate(223.324687 64.709812) scale(0.14 -0.14)">
      <defs>
       <path id="DejaVuSans-52" d="M 2841 2188 
Q 3044 2119 3236 1894 
Q 3428 1669 3622 1275 
L 4263 0 
L 3584 0 
L 2988 1197 
Q 2756 1666 2539 1819 
Q 2322 1972 1947 1972 
L 1259 1972 
L 1259 0 
L 628 0 
L 628 4666 
L 2053 4666 
Q 2853 4666 3247 4331 
Q 3641 3997 3641 3322 
Q 3641 2881 3436 2590 
Q 3231 2300 2841 2188 
z
M 1259 4147 
L 1259 2491 
L 2053 2491 
Q 2509 2491 2742 2702 
Q 2975 2913 2975 3322 
Q 2975 3731 2742 3939 
Q 2509 4147 2053 4147 
L 1259 4147 
z
" transform="scale(0.015625)"/>
      </defs>
      <use xlink:href="#DejaVuSans-52"/>
      <use xlink:href="#DejaVuSans-65" x="64.982422"/>
      <use xlink:href="#DejaVuSans-61" x="126.505859"/>
      <use xlink:href="#DejaVuSans-6c" x="187.785156"/>
      <use xlink:href="#DejaVuSans-20" x="215.568359"/>
      <use xlink:href="#DejaVuSans-6d" x="247.355469"/>
      <use xlink:href="#DejaVuSans-65" x="344.767578"/>
      <use xlink:href="#DejaVuSans-61" x="406.291016"/>
      <use xlink:href="#DejaVuSans-6e" x="467.570312"/>
      <use xlink:href="#DejaVuSans-5f" x="530.949219"/>
      <use xlink:href="#DejaVuSans-73" x="580.949219"/>
      <use xlink:href="#DejaVuSans-71" x="633.048828"/>
      <use xlink:href="#DejaVuSans-75" x="696.525391"/>
      <use xlink:href="#DejaVuSans-61" x="759.904297"/>
      <use xlink:href="#DejaVuSans-72" x="821.183594"/>
      <use xlink:href="#DejaVuSans-65" x="860.046875"/>
      <use xlink:href="#DejaVuSans-64" x="921.570312"/>
      <use xlink:href="#DejaVuSans-5f" x="985.046875"/>
      <use xlink:href="#DejaVuSans-65" x="1035.046875"/>
      <use xlink:href="#DejaVuSans-72" x="1096.570312"/>
      <use xlink:href="#DejaVuSans-72" x="1135.933594"/>
      <use xlink:href="#DejaVuSans-6f" x="1174.796875"/>
      <use xlink:href="#DejaVuSans-72" x="1235.978516"/>
     </g>
    </g>
    <g id="line2d_16">
     <path d="M 184.124687 80.748562 
L 198.124687 80.748562 
L 212.124687 80.748562 
" style="fill: none; stroke: #ff7f0e; stroke-width: 1.5; stroke-linecap: square"/>
    </g>
    <g id="text_16">
     <!-- TabFairGan -->
     <g transform="translate(223.324687 85.648562) scale(0.14 -0.14)">
      <defs>
       <path id="DejaVuSans-54" d="M -19 4666 
L 3928 4666 
L 3928 4134 
L 2272 4134 
L 2272 0 
L 1638 0 
L 1638 4134 
L -19 4134 
L -19 4666 
z
" transform="scale(0.015625)"/>
       <path id="DejaVuSans-46" d="M 628 4666 
L 3309 4666 
L 3309 4134 
L 1259 4134 
L 1259 2759 
L 3109 2759 
L 3109 2228 
L 1259 2228 
L 1259 0 
L 628 0 
L 628 4666 
z
" transform="scale(0.015625)"/>
       <path id="DejaVuSans-47" d="M 3809 666 
L 3809 1919 
L 2778 1919 
L 2778 2438 
L 4434 2438 
L 4434 434 
Q 4069 175 3628 42 
Q 3188 -91 2688 -91 
Q 1594 -91 976 548 
Q 359 1188 359 2328 
Q 359 3472 976 4111 
Q 1594 4750 2688 4750 
Q 3144 4750 3555 4637 
Q 3966 4525 4313 4306 
L 4313 3634 
Q 3963 3931 3569 4081 
Q 3175 4231 2741 4231 
Q 1884 4231 1454 3753 
Q 1025 3275 1025 2328 
Q 1025 1384 1454 906 
Q 1884 428 2741 428 
Q 3075 428 3337 486 
Q 3600 544 3809 666 
z
" transform="scale(0.015625)"/>
      </defs>
      <use xlink:href="#DejaVuSans-54"/>
      <use xlink:href="#DejaVuSans-61" x="44.583984"/>
      <use xlink:href="#DejaVuSans-62" x="105.863281"/>
      <use xlink:href="#DejaVuSans-46" x="169.339844"/>
      <use xlink:href="#DejaVuSans-61" x="217.734375"/>
      <use xlink:href="#DejaVuSans-69" x="279.013672"/>
      <use xlink:href="#DejaVuSans-72" x="306.796875"/>
      <use xlink:href="#DejaVuSans-47" x="347.910156"/>
      <use xlink:href="#DejaVuSans-61" x="425.400391"/>
      <use xlink:href="#DejaVuSans-6e" x="486.679688"/>
     </g>
    </g>
    <g id="line2d_17">
     <path d="M 184.124687 101.297937 
L 198.124687 101.297937 
L 212.124687 101.297937 
" style="fill: none; stroke: #2ca02c; stroke-width: 1.5; stroke-linecap: square"/>
    </g>
    <g id="text_17">
     <!-- TabFairGanConsistent -->
     <g transform="translate(223.324687 106.197937) scale(0.14 -0.14)">
      <defs>
       <path id="DejaVuSans-43" d="M 4122 4306 
L 4122 3641 
Q 3803 3938 3442 4084 
Q 3081 4231 2675 4231 
Q 1875 4231 1450 3742 
Q 1025 3253 1025 2328 
Q 1025 1406 1450 917 
Q 1875 428 2675 428 
Q 3081 428 3442 575 
Q 3803 722 4122 1019 
L 4122 359 
Q 3791 134 3420 21 
Q 3050 -91 2638 -91 
Q 1578 -91 968 557 
Q 359 1206 359 2328 
Q 359 3453 968 4101 
Q 1578 4750 2638 4750 
Q 3056 4750 3426 4639 
Q 3797 4528 4122 4306 
z
" transform="scale(0.015625)"/>
      </defs>
      <use xlink:href="#DejaVuSans-54"/>
      <use xlink:href="#DejaVuSans-61" x="44.583984"/>
      <use xlink:href="#DejaVuSans-62" x="105.863281"/>
      <use xlink:href="#DejaVuSans-46" x="169.339844"/>
      <use xlink:href="#DejaVuSans-61" x="217.734375"/>
      <use xlink:href="#DejaVuSans-69" x="279.013672"/>
      <use xlink:href="#DejaVuSans-72" x="306.796875"/>
      <use xlink:href="#DejaVuSans-47" x="347.910156"/>
      <use xlink:href="#DejaVuSans-61" x="425.400391"/>
      <use xlink:href="#DejaVuSans-6e" x="486.679688"/>
      <use xlink:href="#DejaVuSans-43" x="550.058594"/>
      <use xlink:href="#DejaVuSans-6f" x="619.882812"/>
      <use xlink:href="#DejaVuSans-6e" x="681.064453"/>
      <use xlink:href="#DejaVuSans-73" x="744.443359"/>
      <use xlink:href="#DejaVuSans-69" x="796.542969"/>
      <use xlink:href="#DejaVuSans-73" x="824.326172"/>
      <use xlink:href="#DejaVuSans-74" x="876.425781"/>
      <use xlink:href="#DejaVuSans-65" x="915.634766"/>
      <use xlink:href="#DejaVuSans-6e" x="977.158203"/>
      <use xlink:href="#DejaVuSans-74" x="1040.537109"/>
     </g>
    </g>
   </g>
  </g>
 </g>
 <defs>
  <clipPath id="p7a28b31df3">
   <rect x="57.6" y="41.472" width="357.12" height="266.112"/>
  </clipPath>
 </defs>
</svg>
